<svg width="12" height="13" viewBox="0 0 12 13" fill="none" xmlns="http://www.w3.org/2000/svg">
<path d="M1.99984 7.33333C1.99984 7.91111 2.1165 8.45833 2.34984 8.975C2.58317 9.49167 2.9165 9.94444 3.34984 10.3333C3.33873 10.2778 3.33317 10.2278 3.33317 10.1833V10.0333C3.33317 9.67778 3.39984 9.34445 3.53317 9.03333C3.6665 8.72222 3.86095 8.43889 4.1165 8.18333L5.99984 6.33333L7.88317 8.18333C8.13873 8.43889 8.33317 8.72222 8.4665 9.03333C8.59984 9.34445 8.6665 9.67778 8.6665 10.0333V10.1833C8.6665 10.2278 8.66095 10.2778 8.64984 10.3333C9.08317 9.94444 9.4165 9.49167 9.64984 8.975C9.88317 8.45833 9.99984 7.91111 9.99984 7.33333C9.99984 6.77778 9.89706 6.25278 9.6915 5.75833C9.48595 5.26389 9.18873 4.82222 8.79984 4.43333C8.57762 4.57778 8.34428 4.68611 8.09984 4.75833C7.85539 4.83056 7.60539 4.86667 7.34984 4.86667C6.66095 4.86667 6.06373 4.63889 5.55817 4.18333C5.05262 3.72778 4.76095 3.16667 4.68317 2.5C4.24984 2.86667 3.8665 3.24722 3.53317 3.64167C3.19984 4.03611 2.91928 4.43611 2.6915 4.84167C2.46373 5.24722 2.2915 5.66111 2.17484 6.08333C2.05817 6.50556 1.99984 6.92222 1.99984 7.33333ZM5.99984 8.2L5.04984 9.13333C4.92762 9.25556 4.83317 9.39444 4.7665 9.55C4.69984 9.70556 4.6665 9.86667 4.6665 10.0333C4.6665 10.3889 4.79706 10.6944 5.05817 10.95C5.31928 11.2056 5.63317 11.3333 5.99984 11.3333C6.3665 11.3333 6.68039 11.2056 6.9415 10.95C7.20262 10.6944 7.33317 10.3889 7.33317 10.0333C7.33317 9.85556 7.29984 9.69167 7.23317 9.54167C7.1665 9.39167 7.07206 9.25556 6.94984 9.13333L5.99984 8.2ZM5.99984 0V2.2C5.99984 2.57778 6.13039 2.89444 6.3915 3.15C6.65262 3.40556 6.97206 3.53333 7.34984 3.53333C7.54984 3.53333 7.73595 3.49167 7.90817 3.40833C8.08039 3.325 8.23317 3.2 8.3665 3.03333L8.6665 2.66667C9.48873 3.13333 10.1387 3.78333 10.6165 4.61667C11.0943 5.45 11.3332 6.35556 11.3332 7.33333C11.3332 8.82222 10.8165 10.0833 9.78317 11.1167C8.74984 12.15 7.48873 12.6667 5.99984 12.6667C4.51095 12.6667 3.24984 12.15 2.2165 11.1167C1.18317 10.0833 0.666504 8.82222 0.666504 7.33333C0.666504 5.9 1.14706 4.53889 2.10817 3.25C3.06928 1.96111 4.3665 0.877778 5.99984 0Z" fill="#1C1B1F"/>
</svg>
